<?xml version="1.0" encoding="utf-8"?>
<!-- Generator: Adobe Illustrator 24.3.0, SVG Export Plug-In . SVG Version: 6.00 Build 0)  -->
<svg version="1.1" id="Layer_1" xmlns="http://www.w3.org/2000/svg" xmlns:xlink="http://www.w3.org/1999/xlink" x="0px" y="0px"
	 viewBox="0 0 471.0104 361.1907" enable-background="new 0 0 471.0104 361.1907" xml:space="preserve">
<g>
	<path d="M169.2624,207.5264l-17.1357-19.835c-1.319-1.5272-3.0898-2.4264-4.9421-2.6859l-40.9502-8.7204l-21.2708-25.5503
		l20.6729-32.7324c2.3594-3.7354,1.2441-8.6763-2.4912-11.0356c-3.7373-2.3613-8.6777-1.2437-11.0361,2.4917l-23.7803,37.6514
		c-1.8525,2.9326-1.6035,6.7246,0.6152,9.3906l24.8789,29.8839l-15.0438,56.9355c-1.3604,3.0833-1.4897,6.6987-0.0386,10.0325
		l19.0312,43.7188l-21.1465,45.7422c-2.8965,6.2666-0.165,13.6943,6.1016,16.5918c1.6982,0.7852,3.4814,1.1562,5.2373,1.1562
		c4.7217,0,9.2422-2.6895,11.3545-7.2578l23.5-50.834c1.4971-3.2383,1.5391-6.9629,0.1143-10.2344l-8.4697-19.4561l24.6465,27.2471
		l1.3672,47.3926c0.1963,6.7783,5.752,12.1396,12.4883,12.1396c0.1221,0,0.2451-0.002,0.3672-0.0049
		c6.9004-0.1992,12.334-5.9551,12.1348-12.8555l-1.5-52c-0.0859-2.9736-1.2295-5.8193-3.2246-8.0254l-28.9995-32.0593
		l13.3632-50.5748l14.9131,17.2623c1.5312,1.7734,3.748,2.7705,6.0527,2.7705c0.3809,0,0.7637-0.0273,1.1465-0.082l5.0398-0.7294
		l4.4419-16.8101L169.2624,207.5264z"/>
	<path d="M132.7551,149.8315c-10.5973,1.4255-19.3816-0.0233-20.847-0.2897c-0.244,0.9711-0.432,1.9672-0.5472,2.9897
		c-1.3906,12.3486,7.493,23.4861,19.8408,24.8766c12.3496,1.3907,23.4858-7.4921,24.8766-19.8407
		c0.5586-4.9601-0.543-9.7231-2.858-13.7391l-0.2446,0.1216C152.6201,144.1268,144.1281,148.3015,132.7551,149.8315z
		 M139.621,166.8546c-6.7832,1.7149-13.0858-0.0781-14.0781-4.0048c-0.9941-3.9268,5.498-1.3897,12.2793-3.1045
		c6.7832-1.7149,11.2871-7.0323,12.2812-3.1065C151.0956,160.5656,146.4023,165.1387,139.621,166.8546z"/>
	<path d="M16.3356,136.1699c0.2822,3.1436,2.1328,5.9458,5.5,8.3276c4.6611,3.2969,7.0352,5.8765,7.2578,7.8862
		c0.2051,1.8511-1.4727,3.7085-3.5967,6.0601c-3.8008,4.208-9.0059,9.9717-8.292,20.9268l2.9941-0.1953
		c-0.6318-9.6899,3.8906-14.6973,7.5244-18.7207c2.5244-2.7954,4.7051-5.21,4.3516-8.4009
		c-0.3311-2.9927-2.9551-6.0786-8.5068-10.0054c-2.6533-1.877-4.042-3.8872-4.2441-6.1465
		c-0.4746-5.2915,5.7021-11.5806,10.665-16.6338c4.8389-4.9268,8.6611-8.8184,7.4453-12.1743
		c-1.0117-2.7949-5.0977-3.5146-8.083-3.8135c-4.668-0.4668-7.5381-1.626-7.876-3.1812
		c-0.8164-3.7598,9.4385-11.6372,16.9814-16.0298l-1.5098-2.5928c-3.3477,1.9487-19.9707,12.0371-18.4033,19.2588
		c0.6689,3.0811,4.1064,4.8896,10.5088,5.5303c4.709,0.4707,5.4473,1.5347,5.5615,1.8491c0.5723,1.5806-3.4961,5.7227-6.7646,9.0508
		C22.1716,122.9458,15.738,129.4971,16.3356,136.1699z"/>
	<path d="M149.945,66.8662c0.2822,3.1436,2.1328,5.9458,5.5,8.3276c4.6611,3.2969,7.0352,5.8765,7.2578,7.8862
		c0.2051,1.8511-1.4727,3.7085-3.5967,6.0601c-3.8008,4.208-9.0059,9.9717-8.292,20.9268l2.9941-0.1953
		c-0.6318-9.6899,3.8906-14.6973,7.5244-18.7207c2.5244-2.7954,4.7051-5.21,4.3516-8.4009
		c-0.3311-2.9927-2.9551-6.0786-8.5068-10.0054c-2.6533-1.877-4.042-3.8872-4.2441-6.1465
		c-0.4746-5.2915,5.7021-11.5806,10.665-16.6338c4.8389-4.9268,8.6611-8.8184,7.4453-12.1743
		c-1.0117-2.7949-5.0977-3.5146-8.083-3.8135c-4.668-0.4668-7.5381-1.626-7.876-3.1812
		c-0.8164-3.7598,9.4385-11.6372,16.9814-16.0298l-1.5098-2.5928c-3.3477,1.9487-19.9707,12.0371-18.4033,19.2588
		c0.6689,3.0811,4.1064,4.8896,10.5088,5.5303c4.709,0.4707,5.4473,1.5347,5.5615,1.8491c0.5723,1.5806-3.4961,5.7227-6.7646,9.0508
		C155.7809,53.6421,149.3474,60.1934,149.945,66.8662z"/>
	<circle cx="60.1874" cy="69.8329" r="3"/>
	<circle cx="61.9094" cy="155.2134" r="3"/>
	<circle cx="70.7167" cy="180.7546" r="3"/>
	<circle cx="23.1874" cy="69.5792" r="5.625"/>
	<circle cx="54.6037" cy="111.8708" r="3"/>
	<circle cx="40.0562" cy="200.0424" r="3"/>
	<circle cx="46.937" cy="144.2042" r="3"/>
	<circle cx="5.625" cy="215.235" r="5.625"/>
	<circle cx="71.1758" cy="45.8651" r="5.625"/>
	<circle cx="56.57" cy="222.501" r="3"/>
	<circle cx="30.8085" cy="249.5836" r="3"/>
	<circle cx="56.2673" cy="268.3818" r="3"/>
	<path d="M132.4481,147.5522c11.1273-1.4969,19.5034-5.6621,19.5034-5.6621L125.7321,97.627l-13.5905,49.6185
		C112.1417,147.2454,121.3207,149.0491,132.4481,147.5522z M124.1581,143.5217c-1.3225,0.1779-2.5386-0.7499-2.7166-2.0722
		c-0.1779-1.3224,0.75-2.5386,2.0723-2.7165c1.3224-0.1779,2.5386,0.7499,2.7166,2.0723
		C126.4081,142.1276,125.4804,143.3438,124.1581,143.5217z M132.6628,138.0332c-1.3225,0.1779-2.5386-0.7499-2.7166-2.0723
		c-0.1779-1.3223,0.75-2.5385,2.0723-2.7164c1.3224-0.1779,2.5386,0.7499,2.7166,2.0723
		C134.9128,136.6392,133.985,137.8553,132.6628,138.0332z M141.8807,139.8671c-1.3224,0.1779-2.5385-0.7499-2.7164-2.0723
		c-0.1779-1.3224,0.7499-2.5386,2.0723-2.7164c1.3224-0.1779,2.5386,0.7499,2.7164,2.0722
		C144.1308,138.473,143.2031,139.6892,141.8807,139.8671z M133.5016,118.3571c1.3224-0.1779,2.5386,0.7499,2.7164,2.0723
		c0.1779,1.3224-0.7499,2.5386-2.0721,2.7164c-1.3225,0.1779-2.5386-0.7499-2.7166-2.0722
		C131.2515,119.7512,132.1794,118.535,133.5016,118.3571z M125.5344,123.6826c1.3224-0.1779,2.5386,0.7499,2.7166,2.0723
		c0.1777,1.3224-0.75,2.5386-2.0723,2.7164c-1.3225,0.1779-2.5386-0.7499-2.7166-2.0722
		C123.2842,125.0767,124.2121,123.8605,125.5344,123.6826z"/>
	<path d="M163.9963,164.8568c-0.0449,1.8428,0.5469,3.6445,1.6768,5.1006l17.7324,22.8589l-14.8999,56.3906
		c-1.3516,3.0625-1.4893,6.6519-0.0659,9.9712l18.3037,42.6787l-15.5244,40.5986c-2.4658,6.4482,0.7627,13.6748,7.2109,16.1406
		c1.4697,0.5615,2.9785,0.8271,4.4619,0.8271c5.0312,0,9.7744-3.0596,11.6787-8.0381l17.334-45.333
		c0.2821-0.738,0.4886-1.4962,0.6259-2.2632v-4.3411c-0.1652-0.9501-0.4271-1.8869-0.8134-2.7873l-8.2617-19.2642l9.0751,11.76
		v-8.6827h-5.417v-8.833h-7.333v-11h22.3232l-0.4999-0.6476l7.6418-28.9217l-3.2045-20.1979
		c-0.4834-3.0691,0.3965-6.1807,2.4131-8.54c2.0166-2.3591,4.9521-3.7122,8.0557-3.7122h8.4525l21.1687-18.7449
		c1.2197-1.0801,2.0801-2.5068,2.4678-4.0889l14-57.25c1.0488-4.292-1.5791-8.6221-5.8711-9.6719
		c-4.2959-1.0479-8.6221,1.5791-9.6719,5.8711l-13.4053,54.8193l-23.1733,20.5205l-35.8511-9.4731
		c-0.1772-0.0464-0.3545-0.0781-0.5317-0.1118l-14.0327-18.0898l1.2637-51.3174c0.1084-4.417-3.3848-8.0859-7.8008-8.1953
		c-0.0674-0.001-0.1338-0.002-0.2012-0.002c-4.3262,0-7.8867,3.4531-7.9941,7.8027L163.9963,164.8568z"/>
	<path d="M236.5102,201.6213c-4.6687,0-8.2332,4.1706-7.506,8.7822l7.9701,50.2372h40.1007l-7.3224-13.9803
		c-0.4492-0.8582-0.8154-1.7678-1.0898-2.7065c-0.752-1.8464-0.9473-3.8542-0.5625-5.8181l4.1836-21.3472l-10.0283-6.6906
		c-2.9192-1.9481-4.5872-5.1364-4.6653-8.4766H236.5102z"/>
	<path d="M268.0798,336.9315l-15.9336,4.9026l-2.949,0.9074l-0.6531-10.4288h-23.5138v19.796
		c1.2931,4.56,5.0787,8.0083,9.7179,8.8717c0.9932,0.1851,2.0244,0.2515,3.0776,0.1855c3.2521-0.2037,6.1252-1.6432,8.2183-3.8207
		c0.8162,0.4554,1.7551,0.7173,2.7561,0.7173c0.1992,0,0.396-0.0108,0.5901-0.0309c2.8523-0.2952,5.0767-2.7054,5.0767-5.6357
		c0-1.7045-0.7562-3.2293-1.9473-4.2681c-0.3644-0.3179-0.7695-0.5883-1.207-0.8054l1.155-0.3553l12.3306-3.7941
		c0.2487-0.6511,0.5287-1.2957,0.8772-1.922L268.0798,336.9315z"/>
	<path d="M304.7878,347.3223c-1.8674,0.9267-3.1543,2.8475-3.1543,5.0737c0,3.1296,2.5371,5.6666,5.6667,5.6666
		s5.6667-2.537,5.6667-5.6666c0-2.2309-1.2925-4.1551-3.1665-5.0795v-3.6837l-9.9792-3.0705l-2.4861,4.4669L304.7878,347.3223z"/>
	<path d="M273.5114,332.3127l-5.6517,10.1542c-3.29,5.9116-1.165,13.3711,4.7461,16.6611c1.8867,1.0503,3.9307,1.5488,5.9473,1.5488
		c4.3008-0.0005,8.4746-2.27,10.7148-6.2949l12.2833-22.0692H273.5114z"/>
	<path d="M339.9473,332.3127c1.7269,4.7247,6.2611,8.0417,11.4934,8.0414c0.2148,0,0.4316-0.0059,0.6484-0.0171
		c5.0541-0.2637,9.2306-3.5551,10.868-8.0243H339.9473z"/>
	<polygon points="202.7802,263.6406 202.7802,268.6406 210.1137,268.6406 210.1137,277.4739 215.5302,277.4739 215.5302,357.7687 
		222.0302,357.7687 222.0302,329.3126 420.9711,329.3126 420.9711,357.7687 427.4711,357.7687 427.4711,277.4739 432.8881,277.4739 
		432.8881,268.6406 440.2211,268.6406 440.2211,263.6406 	"/>
	<path d="M347.6301,257.1843h-34.8264c-0.853,0-1.5508,0.6979-1.5508,1.5508c0,0.853,0.6978,1.5508,1.5508,1.5508h36.5331h44.39
		h12.9407c0.9124,0,1.6963-0.6481,1.8677-1.5443l8.6738-45.3273c0.2244-1.1723-0.6742-2.2591-1.8678-2.2591h-57.3307
		c-0.9125,0-1.6963,0.6481-1.8679,1.5443L347.6301,257.1843z M382.7248,226.7051c0.2344-1.3295,1.5022-2.4073,2.8318-2.4073
		c1.3295,0,2.2173,1.0778,1.9828,2.4073s-1.5023,2.4073-2.8318,2.4073S382.4904,228.0347,382.7248,226.7051z"/>
	<path d="M370.2419,81.8477c0.2822,3.1436,2.1328,5.9458,5.5,8.3276c4.6611,3.2969,7.0352,5.8765,7.2578,7.8862
		c0.2051,1.8511-1.4727,3.7085-3.5967,6.0601c-3.8008,4.208-9.0059,9.9717-8.292,20.9268l2.9941-0.1953
		c-0.6318-9.6899,3.8906-14.6973,7.5244-18.7207c2.5244-2.7954,4.7051-5.21,4.3516-8.4009
		c-0.3311-2.9927-2.9551-6.0786-8.5068-10.0054c-2.6533-1.877-4.042-3.8872-4.2441-6.1465
		c-0.4746-5.2915,5.7021-11.5806,10.665-16.6338c4.8389-4.9268,8.6611-8.8184,7.4453-12.1743
		c-1.0117-2.7949-5.0977-3.5146-8.083-3.8135c-4.668-0.4668-7.5381-1.626-7.876-3.1812
		c-0.8164-3.7598,9.4385-11.6372,16.9814-16.0298l-1.5098-2.5928c-3.3477,1.9487-19.9707,12.0371-18.4033,19.2588
		c0.6689,3.0811,4.1064,4.8896,10.5088,5.5303c4.709,0.4707,5.4473,1.5347,5.5615,1.8491c0.5723,1.5806-3.4961,5.7227-6.7646,9.0508
		C376.0778,68.6235,369.6442,75.1748,370.2419,81.8477z"/>
	<circle cx="328.414" cy="52.2992" r="3"/>
	<circle cx="250.8268" cy="108.9965" r="3"/>
	<circle cx="232.3315" cy="84.3359" r="3"/>
	<circle cx="255.8361" cy="33.3635" r="3"/>
	<circle cx="256.5517" cy="60.7546" r="5.625"/>
	<circle cx="331.0837" cy="94.2225" r="5.625"/>
	<circle cx="462.4233" cy="119.9014" r="3"/>
	<circle cx="468.0104" cy="202.024" r="3"/>
	<circle cx="397.9396" cy="93.359" r="5.625"/>
	<circle cx="409.5792" cy="117.3418" r="3"/>
	<circle cx="393.4233" cy="188.9014" r="3"/>
	<circle cx="415.7443" cy="160.4978" r="3"/>
	<circle cx="389.1021" cy="136.718" r="5.625"/>
	<circle cx="280.8544" cy="48.3359" r="3"/>
	<circle cx="349.1113" cy="65.0699" r="3"/>
	<circle cx="424.622" cy="93.3751" r="3"/>
	<circle cx="428.9553" cy="55.2501" r="5.625"/>
	<circle cx="437.1846" cy="231.0882" r="5.625"/>
	<path d="M440.4977,106.6045l-2.0859-2.1558c-0.0427,0.0414-0.097,0.0942-0.1603,0.1564l-0.4257-0.4582
		c-1.3975,1.2974-13.5713,12.9102-10.7773,20.9966c1.1492,3.3262,4.5632,5.4243,10.1498,6.2578
		c1.1654,0.2432,2.4348,0.425,3.816,0.5401c1.162,0.0968,2.125,0.2087,2.9261,0.3264c1.2997,0.2788,1.871,0.5518,2.1119,0.7098
		c-0.6787,1.061-4.2695,3.1465-6.4688,4.4238c-5.0264,2.9199-9.3682,5.4414-9.166,8.52c0.0977,1.4727,1.2041,2.6602,3.2891,3.5293
		c7.2559,3.0229,11.9023,6.9907,12.126,10.355c0.1201,1.7915-1.0674,3.4282-3.5303,4.8643c-2.4678,1.4399-3.585,2.6484-3.7373,4.041
		c-0.1826,1.6743,1.0713,2.8315,2.3994,4.0571c1.8281,1.687,4.1035,3.7866,4.1035,7.939c0,3.5146-0.9141,6.8701-1.7969,10.1152
		c-1.5295,5.6168-3.1,11.4169,0.0364,17.9693c0.2168,0.493,0.4535,0.989,0.7302,1.4907l2.627-1.4492
		c-0.076-0.1379-0.1362-0.2733-0.2068-0.4103l0.0193-0.0106c-0.1602-0.2901-0.3-0.5764-0.4385-0.8625
		c-2.2585-5.1743-0.6953-9.7824,1.1045-15.0526c1.2363-3.624,2.5156-7.3721,2.5156-11.5093c0-5.4658-3.0498-8.2808-5.0684-10.1436
		c-0.583-0.5386-1.3818-1.2754-1.4541-1.5112c0.0059-0.0229,0.1855-0.5752,2.2686-1.7905c4.3945-2.5635,5.1514-5.5781,5.0127-7.6562
		c-0.3096-4.6445-5.4004-9.3555-13.9658-12.9243c-1.1777-0.4902-1.4453-0.897-1.4492-0.957
		c-0.0801-1.2212,5.1602-4.2656,7.6797-5.728c4.9883-2.8975,8.5928-4.9912,7.9844-7.6909
		c-0.3812-1.6929-2.1841-2.6829-6.1998-3.2769c-1.2844-0.27-2.8656-0.4776-4.7933-0.6382c-0.6926-0.0577-1.3483-0.1321-1.97-0.2215
		c-3.572-0.7505-5.7451-2.1386-6.4636-4.1496C429.3395,118.98,437.279,109.7227,440.4977,106.6045z"/>
	<path d="M303.5764,24.3038c-0.6196,0.0889-1.2725,0.1631-1.9624,0.2206c-1.9215,0.1601-3.4983,0.3671-4.7805,0.6357
		c-4.0245,0.5938-5.8311,1.5842-6.2126,3.2793c-0.6084,2.6997,2.9961,4.793,7.9854,7.6904c2.5186,1.4629,7.7598,4.5063,7.6787,5.728
		c-0.0039,0.0596-0.2715,0.4663-1.4492,0.957c-8.5654,3.5688-13.6553,8.2798-13.9658,12.9243
		c-0.1387,2.0781,0.6182,5.0933,5.0127,7.6567c2.127,1.2397,2.2588,1.7383,2.2676,1.729c-0.0732,0.2988-0.8701,1.0347-1.4521,1.5723
		c-2.0186,1.8628-5.0693,4.6777-5.0693,10.144c0,4.1372,1.2793,7.8848,2.5166,11.5088c1.7983,5.2694,3.3623,9.8759,1.1052,15.0494
		c-0.1389,0.287-0.2795,0.5744-0.4402,0.8656l0.0195,0.0107c-0.0706,0.1371-0.1309,0.2726-0.207,0.4106l2.627,1.4492
		c0.2776-0.503,0.5149-1.0002,0.7319-1.4946c3.1343-6.551,1.564-12.3496,0.0347-17.9658
		c-0.8828-3.2446-1.7969-6.6001-1.7969-10.1147c0-4.1523,2.2754-6.2524,4.1035-7.9395c1.3281-1.2251,2.582-2.3828,2.3994-4.0571
		c-0.1523-1.3926-1.2695-2.6011-3.7373-4.0405c-2.4629-1.436-3.6504-3.0732-3.5303-4.8647c0.2236-3.3643,4.8701-7.332,12.126-10.355
		c2.085-0.8691,3.1914-2.0566,3.2891-3.5298c0.2021-3.0781-4.1396-5.5996-9.166-8.519c-2.1992-1.2773-5.79-3.3628-6.4688-4.4238
		c0.2415-0.1583,0.8147-0.432,2.1196-0.7114c0.7998-0.1172,1.76-0.2288,2.9185-0.3253c1.3792-0.1149,2.647-0.2964,3.811-0.539
		c5.5896-0.8331,9.0052-2.9316,10.1548-6.2589C317.0329,12.9102,304.8591,1.2974,303.4616,0l-0.4255,0.4583
		c-0.0632-0.0622-0.1176-0.1151-0.1604-0.1566l-2.0859,2.1562c3.2197,3.1147,11.1602,12.3643,9.2578,17.6934
		C309.3293,22.1647,307.1535,23.5534,303.5764,24.3038z"/>
	<circle cx="353.9526" cy="143.3651" r="5.625"/>
	<path d="M260.5681,198.6226c-1.2646,3.4666,0.0059,7.3479,3.0752,9.3958l35.2295,23.5046
		c1.3652,0.9104,2.9072,1.3462,4.4326,1.3459c2.584,0,5.1211-1.25,6.6631-3.5608c2.4521-3.6753,1.46-8.6426-2.2148-11.0947
		l-29.7852-19.8721c2.0144-4.4647,4.5789-9.2708,7.2793-13.246c1.3909,0.5028,2.4283,0.8525,2.4283,0.8525
		c-2.1617,3.1039-4.4269,7.0583-6.5397,11.5019l28.0049,18.6841c4.8154,3.2136,6.1201,9.7461,2.9072,14.5618
		c-1.9531,2.9263-5.2217,4.6733-8.7432,4.6733h-0.001c-2.0742,0-4.0859-0.6106-5.8184-1.7661l-22.9498-15.3116l-3.9832,20.3246
		c-0.3086,1.5771-0.1133,3.1357,0.4727,4.5107c0.2266,0.8066,0.5371,1.6021,0.9414,2.374l7.9296,15.1401h29.5815
		c-0.3247-0.5643-0.5249-1.2091-0.5249-1.9056c0-2.1235,1.7275-3.8506,3.8506-3.8506h31.6624l-19.8097-11.0758l10.0977-51.5229
		l25.9707,12.6187c1.1016,0.5352,2.2979,0.8042,3.4961,0.8042c0.999,0,1.999-0.187,2.9482-0.563
		c2.0859-0.8271,3.7295-2.4927,4.5283-4.5908l14.7529-38.752c1.5723-4.1289-0.501-8.7505-4.6299-10.3228
		c-4.1377-1.5732-8.751,0.502-10.3232,4.6304l-11.6426,30.5825l-27.0469-13.1416c-0.1865-0.0908-0.377-0.1655-0.5664-0.2407
		c-0.0312-0.0132-0.0625-0.0269-0.0938-0.0396c-0.0723-0.0278-0.1445-0.0527-0.2178-0.0781
		c-0.3975-0.1499-0.8086-0.2764-1.2393-0.3608l-2.4475-0.4796c-3.8719,2.5726-8.5032,4.0931-13.4886,4.1324
		c-10.4268,0.0822-19.4158-6.3186-23.1482-15.4244c-0.8745-0.0201-1.7664,0.0952-2.6458,0.3795
		C272.9548,166.6182,262.5007,193.322,260.5681,198.6226z"/>
	<path d="M314.7361,174.1852c10.0001-0.0789,18.4209-6.6722,21.278-15.72l-1.146-0.2961
		c-0.3845-0.0992-9.5355-2.5077-19.1309-8.8019c-9.5955-6.2943-15.4504-13.7292-15.6946-14.0424l-0.3833-0.4915
		c-4.7039,4.1621-7.6533,10.2557-7.5999,17.0299C292.1574,164.2896,302.3088,174.2831,314.7361,174.1852z M297.9291,149.8937
		c2.387-3.2715,4.5818,3.3423,10.2354,7.4642c5.6519,4.121,12.6218,4.1893,10.2344,7.4617
		c-2.3855,3.2729-8.9021,2.585-14.5557-1.5368C298.1917,159.1608,295.5434,153.1667,297.9291,149.8937z"/>
	<path d="M301.8565,133.91c0,0,5.7539,7.3758,15.1418,13.5339c9.3879,6.1582,18.4452,8.498,18.4452,8.498l9.1851-50.6194
		L301.8565,133.91z M321.0126,139.8517c-0.7317,1.1157-2.2295,1.4268-3.3451,0.695c-1.1156-0.7319-1.4269-2.2296-0.6949-3.3452
		c0.7318-1.1157,2.2295-1.4268,3.3452-0.6949C321.4334,137.2384,321.7446,138.7361,321.0126,139.8517z M325.017,135.3332
		c-1.1157-0.7319-1.4268-2.2296-0.6951-3.3452c0.7319-1.1157,2.2296-1.4268,3.3452-0.695c1.1157,0.7319,1.4269,2.2296,0.6951,3.3452
		C327.6303,135.7538,326.1328,136.065,325.017,135.3332z M332.5048,147.1214c-0.7318,1.1157-2.2295,1.4268-3.3452,0.695
		c-1.1156-0.7319-1.4268-2.2296-0.6949-3.3452s2.2296-1.4268,3.3452-0.6949C332.9255,144.5081,333.2368,146.0057,332.5048,147.1214z
		 M333.4468,117.9653c0.7318-1.1157,2.2295-1.4268,3.3451-0.6949c1.1157,0.7318,1.4269,2.2295,0.6951,3.3452
		c-0.7319,1.1157-2.2295,1.4268-3.3452,0.695S332.715,119.0809,333.4468,117.9653z M333.2523,127.7297
		c0.7318-1.1157,2.2296-1.4268,3.3452-0.6949c1.1156,0.7318,1.4269,2.2295,0.6949,3.3452c-0.7318,1.1157-2.2295,1.4268-3.3452,0.695
		C332.8316,130.3431,332.5204,128.8453,333.2523,127.7297z"/>
	<path d="M218.0175,179.9161c12.3496,1.3907,23.4858-7.4921,24.8766-19.8408c0.5299-4.7046-0.4348-9.2313-2.5107-13.1122
		l-0.3527,0.1754c-0.3556,0.1769-8.8474,4.3517-20.2206,5.8816c-11.3732,1.53-20.6674-0.2522-21.057-0.3289l-0.1768-0.0347
		c-0.1727,0.7784-0.3083,1.5728-0.3997,2.383C196.7861,167.3881,205.6697,178.5255,218.0175,179.9161z M233.574,164.5177
		c0,0-10.6731,17.5598-22.687,0.6608C210.887,165.1785,224.4286,169.1438,233.574,164.5177z"/>
	<path d="M199.1967,150.434c0,0,9.1792,1.8037,20.3064,0.3068c11.1273-1.4968,19.5034-5.662,19.5034-5.662l-26.2194-44.2632
		L199.1967,150.434z M209.2704,141.7883c-1.3224,0.1779-2.5386-0.7499-2.7166-2.0722c-0.1779-1.3224,0.75-2.5386,2.0723-2.7165
		c1.3224-0.1779,2.5386,0.7499,2.7166,2.0723C211.5204,140.3943,210.5927,141.6105,209.2704,141.7883z M218.5893,146.38
		c-1.3223,0.1779-2.5386-0.7499-2.7164-2.0723s0.7499-2.5386,2.0723-2.7164c1.3224-0.1779,2.5386,0.7499,2.7164,2.0723
		C220.8395,144.9859,219.9117,146.2021,218.5893,146.38z M228.9357,143.0557c-1.3223,0.1779-2.5386-0.7499-2.7163-2.0723
		c-0.178-1.3223,0.7498-2.5385,2.0723-2.7164c1.3223-0.1779,2.5385,0.7499,2.7163,2.0723
		C231.186,141.6616,230.2582,142.8778,228.9357,143.0557z M219.2357,126.9401c1.3224-0.1779,2.5386,0.7499,2.7164,2.0723
		c0.178,1.3224-0.7499,2.5386-2.0723,2.7164c-1.3223,0.1779-2.5386-0.7499-2.7164-2.0722
		C216.9855,128.3342,217.9133,127.118,219.2357,126.9401z M213.4865,117.316c1.3223-0.1779,2.5385,0.7499,2.7163,2.0723
		c0.178,1.3224-0.7499,2.5386-2.0723,2.7165c-1.3223,0.1779-2.5386-0.7499-2.7163-2.0723
		C211.2363,118.7101,212.164,117.494,213.4865,117.316z"/>
	<circle cx="217.8898" cy="18.5346" r="3"/>
	<circle cx="178.6813" cy="62.6559" r="3"/>
	<circle cx="128.4875" cy="43.0515" r="5.625"/>
	<circle cx="212.3061" cy="60.5725" r="3"/>
	<circle cx="204.6393" cy="92.9059" r="3"/>
	<circle cx="120.1204" cy="73.8772" r="5.625"/>
</g>
</svg>
