<?xml version="1.0" encoding="UTF-8" standalone="no"?> <svg id="Layer_1" data-name="Layer 1" xmlns="http://www.w3.org/2000/svg" viewBox="0 0 64 64"><title>concert_1</title><circle cx="13" cy="51" r="4"/><path d="M21,59V43H5V59a8.34,8.34,0,0,0-1,0,1,1,0,0,0-.78,1.6c.33.44.78.39,1.25.4,1.46,0,2.92,0,4.38,0H20.61a11.63,11.63,0,0,0,1.32,0c1.16-.13,1.07-1.08,1.07-2ZM13,45a6,6,0,0,1,3.86,10.59A6,6,0,1,1,13,45Z"/><circle cx="13" cy="51" r="4"/><path d="M5,43V59H21V43Zm8,14A6,6,0,0,1,9.14,46.41,6,6,0,1,1,13,57Z"/><circle cx="13" cy="33" r="4"/><path d="M5,25V41H21V25Zm8,14A6,6,0,0,1,9.14,28.41,6,6,0,1,1,13,39Z"/><circle cx="13" cy="33" r="4"/><path d="M5,25V41H21V25Zm8,14A6,6,0,0,1,9.14,28.41,6,6,0,1,1,13,39Z"/><circle cx="13" cy="15" r="4"/><path d="M5,7V23H21V7Zm8,14A6,6,0,0,1,9.14,10.41a6,6,0,0,1,9.76,5.67A6.06,6.06,0,0,1,13,21Z"/><circle cx="13" cy="15" r="4"/><path d="M5,7V23H21V7Zm8,14A6,6,0,0,1,9.14,10.41a6,6,0,0,1,9.76,5.67A6.06,6.06,0,0,1,13,21Z"/><path d="M61,60c0,1.21-1.4,1-2.2,1H5.87A14.28,14.28,0,0,1,4,61a1,1,0,0,1,0-2c.2,0,.4,0,.6,0H52.13c2.53,0,5.14-.18,7.66,0C60.39,59,61,59.25,61,60Z"/><path d="M32,61c-1.29,0-1-1.76-1-2.59V42c0-.68-.23-1.9.14-2.52.6-1,1.76-.33,1.86.59,0,.34,0,.69,0,1v16.8C33,58.78,33.37,61,32,61Z"/><path d="M29,44c-1.16,0-1.1-1.22-.56-1.86.4-.46.87-.88,1.3-1.31L33.56,37a4.77,4.77,0,0,1,.95-.9c1.14-.61,1.83.81,1.13,1.64-.94,1.13-2.11,2.12-3.14,3.15L30.44,43C30.06,43.37,29.6,44,29,44Z"/><circle cx="13" cy="15" r="4"/><circle cx="13" cy="15" r="4"/><circle cx="13" cy="33" r="4"/><circle cx="13" cy="33" r="4"/><circle cx="13" cy="51" r="4"/><circle cx="13" cy="51" r="4"/><circle cx="51" cy="51" r="4"/><path d="M60,59H59V43H43V59H41c0,.87-.11,1.86,1,2a7.48,7.48,0,0,0,.82,0H58.55c.44,0,.91,0,1.35,0C61.18,60.89,61.4,59,60,59ZM51,45a6,6,0,1,1-5.9,4.92A6,6,0,0,1,51,45Z"/><circle cx="51" cy="51" r="4"/><path d="M43,43V59H59V43Zm8,14a6,6,0,1,1,5.9-4.92A6,6,0,0,1,51,57Z"/><circle cx="51" cy="33" r="4"/><path d="M43,25V41H59V25Zm8,14a6,6,0,1,1,5.9-4.92A6,6,0,0,1,51,39Z"/><circle cx="51" cy="33" r="4"/><path d="M43,25V41H59V25Zm8,14a6,6,0,1,1,5.9-4.92A6,6,0,0,1,51,39Z"/><circle cx="51" cy="15" r="4"/><path d="M43,7V23H59V7Zm8,14a6,6,0,0,1-3.86-10.59,6,6,0,0,1,9.76,5.67A6.06,6.06,0,0,1,51,21Z"/><circle cx="51" cy="15" r="4"/><path d="M43,7V23H59V7Zm8,14a6,6,0,0,1-3.86-10.59,6,6,0,0,1,9.76,5.67A6.06,6.06,0,0,1,51,21Z"/><circle cx="51" cy="15" r="4"/><circle cx="51" cy="15" r="4"/><circle cx="51" cy="33" r="4"/><circle cx="51" cy="33" r="4"/><circle cx="51" cy="51" r="4"/><circle cx="51" cy="51" r="4"/><rect x="30" y="5" width="4" height="2"/><rect x="30" y="5" width="4" height="2"/><path d="M37,11v4H27c0-1.23,0-2.47,0-3.7A2.19,2.19,0,0,1,29.45,9c1.44,0,2.89,0,4.34,0S37,9.09,37,11Z"/><path d="M37,11v4H27c0-1.23,0-2.47,0-3.7A2.19,2.19,0,0,1,29.45,9c1.44,0,2.89,0,4.34,0S37,9.09,37,11Z"/></svg>