<?xml version="1.0" encoding="utf-8"?>
<!-- Generator: Adobe Illustrator 23.0.2, SVG Export Plug-In . SVG Version: 6.00 Build 0)  -->
<svg version="1.1" id="Layer_1" xmlns="http://www.w3.org/2000/svg" xmlns:xlink="http://www.w3.org/1999/xlink" x="0px" y="0px"
	 viewBox="0 0 598.5004 359.1519" enable-background="new 0 0 598.5004 359.1519" xml:space="preserve">
<g>
	<path d="M396.9417,173.0087c0.0424-1.4075,0.0956-2.7741,0.1981-4.0623c-3.6189-2.1699-6.616-5.2728-8.6566-8.9752
		c-2.035,2.8235-3.4802,6.6897-3.8629,12.0002l6.2388,2.5461C392.6589,173.9502,394.6843,173.432,396.9417,173.0087z"/>
	<path d="M375.1625,196.3723c-3.3293-0.0784,1.8359,4.4109,8.8986,2.3872c-0.693-2.1276-1.4052-4.1569-2.0809-5.9974
		C380.0934,195.7171,377.4902,196.4271,375.1625,196.3723z"/>
	<path d="M378.239,294.1141l-5.4468,52.3165c-0.5723,5.4932,3.418,10.4092,8.9111,10.9814
		c0.3516,0.0361,0.7012,0.0547,1.0469,0.0547c5.0576,0,9.3994-3.8242,9.9346-8.9658l5.5254-53.071
		C390.4269,294.9737,381.3212,294.3338,378.239,294.1141z"/>
	<path d="M420.4841,295.4291l5.5249,53.0718c0.5352,5.1416,4.876,8.9658,9.9336,8.9658c0.3467,0,0.6963-0.0186,1.0479-0.0547
		c5.4932-0.5723,9.4834-5.4883,8.9111-10.9814l-5.4464-52.3175C437.3871,294.3318,428.2751,294.9724,420.4841,295.4291z"/>
	<path d="M409.3403,170.0215c11.874,0,21.5-9.6259,21.5-21.5c0-11.8741-9.626-21.5-21.5-21.5c-11.8741,0-21.5,9.6259-21.5,21.5
		C387.8403,160.3956,397.4661,170.0215,409.3403,170.0215z M400.6838,156.2613c0,0,15.1086,1.056,23.6389-5.8903
		C424.3227,150.371,417.1533,171.2299,400.6838,156.2613z"/>
	<path d="M459.1125,199.9141l-19.1661-15.3878l-2.5507-2.0478c-0.4468-0.3588-0.9288-0.6414-1.4287-0.8643
		c-3.1339-2.1791-11.4595-6.6992-26.6248-6.6992c-8.0439,0-14.1621,1.2728-18.6047,2.7929l-27.0813-11.0524l-2.6252-16.1276
		l-9.4792,22.4282c0.5188,1.9599,1.9191,3.5833,3.8184,4.3585l28.3633,11.5756c3.1443,8.1746,8.0659,22.6263,7.3271,31.3228
		c-0.8301,9.7615-5.625,14.0052-7.2318,22.577c-0.2279,0.6819-0.3915,1.3958-0.4691,2.1406l-1.3132,12.6132l-1.2075,8.7043
		l-0.2922,2.1058l-3.1482,22.6924c0,0,25.9424,1.875,31.9424,1.875s31.9423-1.875,31.9423-1.875l-3.0801-22.2014l-0.359-2.5878
		l-1.1563-8.3342l-1.3525-12.9924c-0.0795-0.7629-0.2506-1.4926-0.4878-2.1891c-1.6155-8.5403-6.3955-12.7849-7.2241-22.5285
		c-0.5706-6.7158,2.2347-16.8642,4.9902-24.9032l2.4894,1.9987l17.8202,14.3067c1.1572,0.9287,2.5928,1.4316,4.0693,1.4316
		c0.124,0,0.249-0.0039,0.374-0.0107l9.8916-0.5707c0.8712-4.7123,1.7405-9.1232,2.5746-13.17L459.1125,199.9141z"/>
	<path d="M527.1849,186.7144c0.0918-0.4099,0.1611-0.8197,0.2114-1.2281c16.6694-2.8365,30.519-10.7804,31.3804-11.2821
		c1.6309-0.9497,2.873-2.4448,3.5078-4.2222l16.666-46.6665c1.4854-4.1606-0.6826-8.7383-4.8438-10.2246
		c-4.1611-1.4849-8.7383,0.6826-10.2246,4.8438l-15.6396,43.7935c-7.4701,3.8313-22.3334,9.7078-35.2307,8.6372
		c-0.089,0.0248-0.1737,0.0584-0.2631,0.0823c-2.0446,0.546-4.1637,0.8279-6.2979,0.8379
		c-9.067,0.042-17.0326-4.8157-21.3925-12.0792c-8.7552-4.8692-16.8771-10.0989-21.4771-13.1554l5.3916-47.2339
		c0.501-4.3896-2.6514-8.3545-7.041-8.8555c-4.3936-0.5-8.3545,2.6514-8.8555,7.041l-5.9414,52.0488
		c-0.333,2.9165,0.958,5.7813,3.3643,7.4639c0.8037,0.5619,13.6465,9.5007,28.2256,17.4666
		c-0.0049,0.0166-0.0112,0.032-0.0156,0.0486c-1.2725,4.8267-30.9189,118.8726-9.4023,176.96
		c1.8682,5.0425,6.6436,8.1621,11.7236,8.1616c1.4414,0,2.9092-0.2515,4.3398-0.7817c6.4736-2.3979,9.7783-9.5898,7.3799-16.0635
		c-7.8613-21.2235-7.4121-52.863-4.2144-82.5581c3.2612-0.3196,6.7217-0.7361,10.1416-1.2244
		c2.8413,30.7988,11.9609,65.6362,34.9741,94.2527c2.4697,3.0708,6.0928,4.667,9.749,4.667c2.749,0,5.5166-0.9028,7.8262-2.7598
		c5.3789-4.3262,6.2334-12.1948,1.9072-17.5742C507.1683,279.9541,526.9222,187.9048,527.1849,186.7144z"/>
	<path d="M506.4404,168.9853c12.4274-0.0599,22.4531-10.1796,22.3933-22.6069c-0.0579-12.4273-10.1775-22.4512-22.605-22.3934
		c-12.4254,0.0579-22.4531,10.1796-22.3953,22.605C483.8934,159.0173,494.0151,169.043,506.4404,168.9853z M511.5231,155.2032
		c-14.73,14.5923-22.2388-4.5356-22.2388-4.5356C497.5025,156.7913,511.5231,155.2032,511.5231,155.2032z"/>
	<path d="M284.4245,154.821c1.3906,12.3486,12.527,21.2314,24.8766,19.8407c12.3478-1.3906,21.2313-12.528,19.8407-24.8766
		c-1.3906-12.3488-12.5288-21.2313-24.8766-19.8408C291.9156,131.3351,283.0339,142.4722,284.4245,154.821z M321.6017,155.5782
		c-2.9087,4.7114-8.1038,7.8682-14.0352,7.8682s-11.1265-3.1567-14.0352-7.8682H321.6017z"/>
	<path d="M243.0909,159.3267l5.311,9.1161l4.1752-3.6975l3.6031-14.7346l-3.7894-6.5043
		c-2.2246-3.8164-7.1211-5.1099-10.9395-2.8853c-1.8427,1.0735-3.0898,2.7722-3.6442,4.6696
		C240.9781,149.3886,242.7906,154.2471,243.0909,159.3267z"/>
	<path d="M358.9525,147.7393c0.501-1.1855,0.709-2.4751,0.6045-3.7588l-4-49.5c-0.3564-4.4033-4.2168-7.6851-8.6182-7.3296
		c-4.4033,0.356-7.6855,4.2144-7.3291,8.6187l3.8418,47.5464l-12.7583,30.1857l-36.6147,7.7971l-21.3262-2.8436l-1.056-1.8125
		c-0.5417,0.8431-1.1941,1.6166-1.9579,2.2931l-10.0425,8.8925l1.2039,2.0664c1.2441,2.1353,3.4053,3.5757,5.8545,3.9023
		l23.7485,3.1665l14.5068,54.9036l-28.9995,32.0593c-1.9951,2.2061-3.1387,5.0518-3.2246,8.0254l-1.5,52
		c-0.1992,6.9004,5.2344,12.6563,12.1348,12.8555c0.1221,0.0029,0.2451,0.0049,0.3672,0.0049
		c6.7363,0,12.292-5.3613,12.4883-12.1396l1.3672-47.3926l24.6465-27.2471l-8.4697,19.4561
		c-1.4248,3.2715-1.3828,6.9961,0.1143,10.2344l23.5,50.834c2.1123,4.5684,6.6328,7.2578,11.3545,7.2578
		c1.7559,0,3.5391-0.3711,5.2373-1.1563c6.2666-2.8975,8.998-10.3252,6.1016-16.5918l-21.1465-45.7422l19.0313-43.7188
		c1.4512-3.3337,1.3218-6.9492-0.0386-10.0325l-14.772-55.906c0.2495-0.3857,0.4771-0.7905,0.6621-1.228L358.9525,147.7393z"/>
	<path d="M171.954,177.6761l-13.5212,22.1257l-12.835-14.8564c-1.319-1.5282-3.0909-2.4275-4.9442-2.6865l-38.3931-8.1759
		l-9.2487-38.9589l13.2744-47.3389c1.1924-4.2549-1.2891-8.6699-5.543-9.8633c-4.2568-1.1914-8.6699,1.29-9.8633,5.543
		l-13.833,49.333c-0.3662,1.3076-0.3945,2.6865-0.0801,4.0078l10.7439,45.2552l-15.4606,58.5126
		c-1.3604,3.0833-1.4897,6.6987-0.0386,10.0325l19.0313,43.7188L70.0965,340.067c-2.8965,6.2666-0.165,13.6943,6.1016,16.5918
		c1.6982,0.7852,3.4814,1.1563,5.2373,1.1563c4.7217,0,9.2422-2.6895,11.3545-7.2578l23.5-50.834
		c1.4971-3.2383,1.5391-6.9629,0.1143-10.2344l-8.4697-19.4561l24.6465,27.2471l1.3672,47.3926
		c0.1963,6.7783,5.752,12.1396,12.4883,12.1396c0.1221,0,0.2451-0.002,0.3672-0.0049c6.9004-0.1992,12.334-5.9551,12.1348-12.8555
		l-1.5-52c-0.0859-2.9736-1.2295-5.8193-3.2246-8.0254l-28.9995-32.0593l13.363-50.5746l14.9132,17.2623
		c1.5264,1.7676,3.7393,2.7705,6.0527,2.7705c0.2178,0,0.4375-0.0088,0.6563-0.0273c2.5459-0.209,4.8389-1.6211,6.1709-3.8008
		l14.4229-23.6011l0.951-3.5989L171.954,177.6761z"/>
	<path d="M124.6727,174.6617c12.3497,1.3907,23.486-7.4921,24.8766-19.8407c1.3906-12.3488-7.4911-23.4858-19.8408-24.8766
		c-12.3477-1.3906-23.4859,7.492-24.8766,19.8408C103.4413,162.1337,112.325,173.2711,124.6727,174.6617z M131.2935,156.9988
		c6.7832-1.7149,11.287-7.0323,12.2812-3.1065c0.9922,3.9268-3.7012,8.5-10.4824,10.2158
		c-6.7832,1.7149-13.0859-0.0781-14.0781-4.0048C118.02,156.1766,124.5122,158.7136,131.2935,156.9988z"/>
	<path d="M267.7491,176.6896c1.2197-1.0801,2.0801-2.5068,2.4678-4.0889l14-57.25c1.0488-4.292-1.5791-8.6221-5.8711-9.6719
		c-4.2959-1.0479-8.6221,1.5791-9.6719,5.8711l-13.4053,54.8193l-23.1733,20.5205l-6.5826-1.7394
		c-2.4774,0.8016-5.1139,1.2378-7.8452,1.2378c-0.9561,0-1.9258-0.0547-2.8818-0.1621c-6.1902-0.6976-11.7888-3.5671-15.9499-8.1247
		l-2.5915-0.6848c-0.1772-0.0464-0.3545-0.0781-0.5317-0.1118l-14.0327-18.0898l1.2637-51.3174
		c0.1084-4.417-3.3848-8.0859-7.8008-8.1953c-0.0674-0.001-0.1338-0.002-0.2012-0.002c-4.3262,0-7.8867,3.4531-7.9941,7.8027
		l-1.333,54.167c-0.0449,1.8428,0.5469,3.6445,1.6768,5.1006l17.7324,22.8589l-14.8999,56.3906
		c-1.3516,3.0625-1.4893,6.6519-0.0659,9.9712l18.3037,42.6787l-15.5244,40.5986c-2.4658,6.4482,0.7627,13.6748,7.2109,16.1406
		c1.4697,0.5615,2.9785,0.8271,4.4619,0.8271c5.0313,0,9.7744-3.0596,11.6787-8.0381l17.334-45.333
		c1.1602-3.0361,1.0938-6.4043-0.1875-9.3916l-8.2617-19.2642l18.0664,23.4116l3.0479,48.6641
		c0.3652,5.8359,4.6797,10.4849,10.1787,11.5083c0.9932,0.1851,2.0244,0.2515,3.0776,0.1855
		c6.8901-0.4316,12.126-6.3667,11.6948-13.2573l-3.2866-52.4873c-0.1563-2.4912-1.0547-4.8784-2.5801-6.855l-22.0503-28.5732
		l13.686-51.7974l-0.123-0.9004L267.7491,176.6896z"/>
	<path d="M215.1217,183.2449c12.3496,1.3908,23.486-7.4921,24.8766-19.8407c1.3906-12.3488-7.4911-23.4858-19.8408-24.8766
		c-12.3477-1.3906-23.4859,7.4919-24.8766,19.8407C193.8903,170.7169,202.774,181.8544,215.1217,183.2449z M233.3518,164.3282
		c-2.9087,4.7114-8.1038,7.8682-14.0352,7.8682s-11.1265-3.1567-14.0352-7.8682H233.3518z"/>
	<path d="M524.593,54.8193c3.5889-1.0508,6.6885-1.958,6.9717-4.4658c0.1965-1.7385-1.1343-3.5285-4.525-5.8788
		c-1.5609-1.2338-3.7411-2.6187-6.6615-4.2521c-0.1086-0.0607-0.1921-0.1141-0.2891-0.1716
		c-0.2327-0.2495-0.2627-0.3823-0.2627-0.3851c-0.04-0.3789,1.3027-1.5527,2.0244-2.1826c2.0684-1.8076,4.9014-4.2832,4.9482-8.2354
		c0.0469-3.8955-2.6768-8.3066-8.3271-13.4854l-0.1458,0.1591c-0.4061-0.3956-0.8236-0.7942-1.2654-1.1991l-2.0273,2.2109
		c4.916,4.5059,7.3906,8.2881,7.3555,11.2393c-0.0313,2.6104-2.0986,4.417-3.9229,6.0107
		c-1.6641,1.4541-3.2363,2.8281-3.0342,4.7549c0.1656,1.5849,1.5006,2.7017,2.8384,3.525c0.6234,0.563,1.3618,1.0308,2.0542,1.4184
		c2.2369,1.2507,3.8519,2.2645,5.0417,3.0885c1.6826,1.3414,1.8048,1.9044,1.8157,1.9701
		c-0.3066,0.6318-3.1465,1.4639-4.8438,1.9609c-4.6436,1.3594-10.4229,3.0508-10.6738,8.1973
		c-0.2073,4.244,1.5508,6.5684,3.8743,7.9509c2.1682,1.9816,5.3418,2.6267,7.7957,3.1175c1.3755,0.2749,2.3723,0.5077,3.0864,0.7574
		c0.0439,0.132,0.0681,0.2723,0.062,0.4291c-0.123,3.123-3.1963,4.0869-8.2432,5.3037c-5.0977,1.2295-11.4414,2.7588-10.4277,9.791
		c0.6084,4.2227,3.6973,6.3525,6.6855,8.4131c3.4999,2.4138,7.3474,5.0719,8.615,11.7014c0.3857,2.5681,0.4839,5.7564,0.177,9.7811
		l2.9922,0.2285c0.04-0.525,0.0723-1.0363,0.0989-1.5371l0.0115,0.001c0.3491-4.189,0.0885-7.5396-0.5786-10.2726
		c-1.5842-7.8054-5.7535-10.3716-9.0474-12.3983c-2.4268-1.4941-4.1807-2.5732-4.5742-5.3057
		c-0.5615-3.9014,2.1904-5.0059,8.1611-6.4453c4.8359-1.166,10.3164-2.4873,10.5391-8.1016
		c0.0793-2.0119-0.9572-3.1863-2.4131-3.9432c-1.3519-1.4564-3.833-1.9575-5.9678-2.3839c-2.0924-0.4183-3.834-0.8343-5.1467-1.5266
		c-0.926-0.9709-1.3921-2.3305-1.2927-4.3738C516.2189,57.2715,520.6672,55.9688,524.593,54.8193z"/>
	<path d="M247.3381,18.2959l-1.5098-2.5918c-0.1463,0.0851-0.3262,0.1912-0.5205,0.3065l-0.9795-1.6815
		c-3.3477,1.9482-19.9707,12.0361-18.4033,19.2578c0.2839,1.3079,1.0723,2.3842,2.369,3.2416
		c1.486,1.9587,4.6631,3.1664,9.6398,3.6636c2.008,0.2011,3.2896,0.5099,4.113,0.8223c-0.0168,1.7784-3.7639,5.5952-6.8162,8.7031
		c-5.6777,5.7803-12.1113,12.332-11.5137,19.0039c0.2532,2.8213,1.7794,5.3638,4.5202,7.5776
		c0.7089,0.7397,1.5266,1.4513,2.4798,2.1255c1.2321,0.8715,2.2938,1.6896,3.2087,2.4636c1.5634,1.5519,2.4216,2.8969,2.5491,4.0482
		c0.2051,1.8506-1.4727,3.708-3.5967,6.0596c-3.8008,4.208-9.0059,9.9717-8.292,20.9268l1.4512-0.0947
		c0.0085,0.4829,0.0159,0.965,0.0488,1.4697l2.9941-0.1953c-0.6318-9.6895,3.8906-14.6973,7.5244-18.7207
		c2.5244-2.7959,4.7051-5.21,4.3516-8.4014c-0.2498-2.2576-1.8071-4.5692-4.9403-7.2545c-1.2952-1.2822-2.9719-2.6439-5.0665-4.1254
		c-0.2501-0.1769-0.478-0.3563-0.7057-0.5357c-1.2225-1.3242-1.9031-2.7235-2.0384-4.2358
		c-0.4746-5.292,5.7021-11.5811,10.665-16.6338c4.8389-4.9268,8.6611-8.8184,7.4453-12.1748
		c-0.3416-0.9434-1.0384-1.6462-1.9203-2.1804c-1.4407-2.1298-4.9895-2.7404-7.6627-3.0071
		c-2.7919-0.2792-4.9343-0.8079-6.2828-1.5192c-0.0408-0.0942-0.072-0.19-0.0931-0.2874
		C229.5402,30.5664,239.7951,22.6895,247.3381,18.2959z"/>
	<path d="M55.0051,149.2959l-1.5098-2.5918c-0.1463,0.0851-0.3262,0.1912-0.5205,0.3065l-0.9795-1.6815
		c-3.3477,1.9482-19.9707,12.0361-18.4033,19.2578c0.2839,1.3079,1.0723,2.3842,2.369,3.2416
		c1.486,1.9587,4.6631,3.1664,9.6398,3.6636c2.008,0.2011,3.2896,0.5099,4.113,0.8223c-0.0168,1.7784-3.7639,5.5952-6.8162,8.7031
		c-5.6777,5.7803-12.1113,12.332-11.5137,19.0039c0.2532,2.8213,1.7794,5.3638,4.5202,7.5776
		c0.7089,0.7397,1.5266,1.4513,2.4798,2.1255c1.2321,0.8715,2.2938,1.6896,3.2087,2.4636c1.5634,1.5519,2.4216,2.8969,2.5491,4.0482
		c0.2051,1.8506-1.4727,3.708-3.5967,6.0596c-3.8008,4.208-9.0059,9.9717-8.292,20.9268l1.4512-0.0947
		c0.0085,0.4829,0.0159,0.965,0.0488,1.4697l2.9941-0.1953c-0.6318-9.6895,3.8906-14.6973,7.5244-18.7207
		c2.5244-2.7959,4.7051-5.21,4.3516-8.4014c-0.2498-2.2576-1.8071-4.5692-4.9403-7.2545c-1.2952-1.2822-2.9719-2.6439-5.0665-4.1254
		c-0.2501-0.1769-0.478-0.3563-0.7057-0.5357c-1.2225-1.3242-1.9031-2.7235-2.0384-4.2358
		c-0.4746-5.292,5.7021-11.5811,10.665-16.6338c4.8389-4.9268,8.6611-8.8184,7.4453-12.1748
		c-0.3416-0.9434-1.0384-1.6462-1.9203-2.1804c-1.4407-2.1298-4.9895-2.7404-7.6627-3.0071
		c-2.7919-0.2792-4.9343-0.8079-6.2828-1.5192c-0.0408-0.0942-0.072-0.19-0.0931-0.2874
		C37.2072,161.5664,47.4621,153.6895,55.0051,149.2959z"/>
	<circle cx="152.5833" cy="63.125" r="3"/>
	<circle cx="135.0833" cy="92.375" r="3"/>
	<circle cx="173.3333" cy="83.375" r="3"/>
	<circle cx="124.9583" cy="60.5" r="5.625"/>
	<circle cx="190.4583" cy="60.5" r="5.625"/>
	<circle cx="64.6671" cy="48.2537" r="3"/>
	<circle cx="25.4587" cy="92.375" r="3"/>
	<circle cx="27.6671" cy="48" r="5.625"/>
	<circle cx="59.0833" cy="90.2916" r="3"/>
	<circle cx="19.0833" cy="169.125" r="3"/>
	<circle cx="51.4166" cy="122.625" r="3"/>
	<circle cx="5.625" cy="115.1666" r="5.625"/>
	<circle cx="102.9583" cy="25.1666" r="5.625"/>
	<path d="M380.7853,50.9863c4.6094-2.6768,7.9385-4.6113,7.3623-7.1719c-0.3628-1.6109-2.0519-2.5464-5.8136-3.1003
		c-1.1747-0.245-2.6095-0.4341-4.3534-0.5794c-0.5824-0.0485-1.1895-0.117-1.8005-0.2069c-3.2062-0.6759-5.1603-1.913-5.8-3.7042
		c-1.7158-4.7998,5.5059-13.21,8.4326-16.0449l-2.0859-2.1563c-0.0388,0.0375-0.0874,0.085-0.1445,0.1411l-0.3887-0.4184
		c-1.2842,1.1924-12.4697,11.8643-9.8887,19.335c1.0664,3.0892,4.2217,5.0356,9.3799,5.8065
		c1.0698,0.2231,2.2347,0.3897,3.501,0.4953c1.0537,0.0878,1.9236,0.1891,2.6492,0.2953c1.0004,0.2144,1.5204,0.423,1.7786,0.5631
		c-0.7686,0.9785-3.8701,2.7803-5.79,3.8955c-4.6338,2.6914-8.6357,5.0156-8.4453,7.9092c0.0928,1.4004,1.1309,2.5225,3.0859,3.3379
		c6.5889,2.7451,10.8076,6.3301,11.0098,9.3574c0.1055,1.5859-0.959,3.042-3.165,4.3291c-1.6191,0.9453-3.2988,2.1338-3.4795,3.792
		c-0.1738,1.5947,0.9951,2.6748,2.2344,3.8174c1.6533,1.5264,3.7109,3.4248,3.7109,7.166c0,3.1963-0.833,6.2559-1.6387,9.2148
		c-1.4047,5.1575-2.8459,10.4824,0.0369,16.5112c0.2002,0.4559,0.4191,0.9145,0.675,1.3785l2.627-1.4492
		c-0.0696-0.126-0.1245-0.2497-0.1888-0.3749l0.0179-0.0099c-0.1454-0.2635-0.2727-0.5237-0.3982-0.7836
		c-2.0413-4.6866-0.6204-8.8749,1.0154-13.6656c1.1348-3.3232,2.3076-6.7598,2.3076-10.5645c0-5.0547-2.8135-7.6514-4.6758-9.3701
		c-0.4697-0.4336-1.0986-1.0137-1.2607-1.3096c0.1055-0.1631,0.5146-0.6475,1.9834-1.5039c4.0742-2.377,4.7754-5.1846,4.6465-7.1201
		c-0.2871-4.2979-4.9697-8.6455-12.8486-11.9277c-1.0322-0.4297-1.2334-0.7598-1.2461-0.7598
		C373.9074,54.9814,378.5519,52.2832,380.7853,50.9863z"/>
	<circle cx="436.5833" cy="3.125" r="3"/>
	<circle cx="160.5004" cy="25.4203" r="3"/>
	<circle cx="191.4166" cy="38.9583" r="3"/>
	<circle cx="278.0004" cy="36.9203" r="3"/>
	<circle cx="413.5833" cy="92.625" r="3"/>
	<circle cx="457.3333" cy="23.375" r="3"/>
	<circle cx="494.0833" cy="46.125" r="3"/>
	<circle cx="551.0833" cy="93.2916" r="3"/>
	<circle cx="595.5004" cy="148.4203" r="3"/>
	<circle cx="581.7499" cy="46.125" r="3"/>
	<circle cx="418.0833" cy="40.625" r="5.625"/>
	<circle cx="455.4167" cy="65.625" r="5.625"/>
	<circle cx="343.0833" cy="30.2916" r="3"/>
	<circle cx="323.0833" cy="108.0416" r="3"/>
	<circle cx="335.4167" cy="62.625" r="3"/>
	<circle cx="296.6249" cy="56.6666" r="5.625"/>
	<ellipse transform="matrix(0.3827 -0.9239 0.9239 0.3827 91.2892 290.4648)" cx="263.0004" cy="76.9203" rx="5.625" ry="5.625"/>
	<circle cx="555.4167" cy="55.1666" r="5.625"/>
	<circle cx="584.0833" cy="82.2916" r="5.625"/>
	<circle cx="560.0833" cy="243.1666" r="5.625"/>
	<circle cx="316.0833" cy="5.625" r="5.625"/>
	<path d="M588.8693,211.2764c4.9893-2.8965,8.5938-4.9902,7.9854-7.6895c-0.3816-1.6951-2.188-2.6859-6.2124-3.2797
		c-1.2822-0.2687-2.8591-0.4759-4.7808-0.6363c-0.6886-0.0573-1.3412-0.1307-1.9597-0.2194
		c-3.5781-0.7501-5.7546-2.1388-6.4739-4.1517c-1.9004-5.3193,6.0391-14.5762,9.2578-17.6943l-2.0859-2.1563
		c-0.0427,0.0413-0.0968,0.0939-0.1599,0.1559l-0.426-0.4587c-1.3975,1.2979-13.5713,12.9111-10.7773,20.9971
		c1.1494,3.3271,4.5645,5.4261,10.1543,6.2593c1.1641,0.2427,2.4321,0.4244,3.8115,0.5395c1.161,0.0967,2.1233,0.2084,2.9241,0.3259
		c1.3011,0.279,1.8728,0.5522,2.114,0.7102c-0.6777,1.0605-4.2686,3.1465-6.4688,4.4238c-5.0264,2.9199-9.3682,5.4414-9.166,8.5195
		c0.0977,1.4727,1.2041,2.6602,3.2891,3.5293c7.2559,3.0225,11.9023,6.9912,12.126,10.3555
		c0.1201,1.791-1.0674,3.4277-3.5303,4.8643c-2.4678,1.4395-3.585,2.6475-3.7373,4.04c-0.1826,1.6748,1.0713,2.832,2.3994,4.0576
		c1.8281,1.6875,4.1035,3.7871,4.1035,7.9395c0,3.5146-0.9141,6.8701-1.7969,10.1143c-1.5291,5.6161-3.0991,11.4138,0.0337,17.9638
		c0.2173,0.4952,0.4548,0.9933,0.7329,1.4971l2.627-1.4492c-0.0762-0.1381-0.1366-0.2737-0.2073-0.411l0.0198-0.0109
		c-0.1611-0.2919-0.302-0.58-0.4412-0.8677c-2.2554-5.1724-0.6919-9.7784,1.1062-15.0474c1.2373-3.624,2.5166-7.3711,2.5166-11.5088
		c0-5.4658-3.0508-8.2813-5.0693-10.1436c-0.583-0.5381-1.3818-1.2754-1.4541-1.5117c0.0068-0.0225,0.1855-0.5752,2.2695-1.79
		c4.3945-2.5635,5.1514-5.5791,5.0127-7.6563c-0.3105-4.6455-5.4004-9.3555-13.9658-12.9248
		c-1.1777-0.4902-1.4453-0.8975-1.4492-0.957C581.1096,215.7832,586.3508,212.7393,588.8693,211.2764z"/>
	<circle cx="205.625" cy="122.6666" r="5.625"/>
	<circle cx="495.0833" cy="103.625" r="5.625"/>
</g>
</svg>
